<svg xmlns="http://www.w3.org/2000/svg" width="36" height="36" viewBox="0 0 36 36">
  <title>Artboard 3</title>
  <g>
    <path d="M30.09,9.11A7.41,7.41,0,0,0,23,6.82h0a1.07,1.07,0,0,0,.45,2.1A5.27,5.27,0,0,1,29.6,15.7h0A1.07,1.07,0,0,0,30.29,17h0a1.07,1.07,0,0,0,1.35-.69h0a7.41,7.41,0,0,0-1.55-7.25" style="fill: #232424"/>
    <path d="M27.27,11.65a3.61,3.61,0,0,0-3.44-1.11.92.92,0,0,0,.33,1.81h.05a1.76,1.76,0,0,1,2,2.27h0a.92.92,0,1,0,1.75.57,3.59,3.59,0,0,0-.75-3.53" style="fill: #232424"/>
    <path d="M25,17.58c-.39-.12-.66-.2-.46-.71a2.92,2.92,0,0,0,0-2.79c-.91-1.3-3.4-1.23-6.25,0,0,0-.89.39-.67-.32.44-1.41.37-2.59-.31-3.27C15.82,8.9,11.7,10.51,8.18,14,5.53,16.67,4,19.47,4,21.9c0,4.63,5.94,7.45,11.75,7.45,7.62,0,12.68-4.42,12.68-7.94,0-2.12-1.79-3.33-3.39-3.82m-9.27,10.1C11.13,28.14,7.12,26,6.82,23s3.21-5.88,7.85-6.34,8.64,1.64,8.94,4.68-3.21,5.88-7.85,6.34" style="fill: #232424"/>
    <path d="M16.23,19a5,5,0,0,0-5.66,2.47,3.44,3.44,0,0,0,2.2,4.9,5,5,0,0,0,6-2.53A3.46,3.46,0,0,0,16.23,19Zm-1.69,5.06a1.76,1.76,0,0,1-2.13.7,1.23,1.23,0,0,1-.47-1.85,1.76,1.76,0,0,1,2.09-.7A1.23,1.23,0,0,1,14.54,24.06ZM16,22.17a.67.67,0,0,1-.8.29.47.47,0,0,1-.21-.7.66.66,0,0,1,.78-.29A.47.47,0,0,1,16,22.17Z" style="fill: #232424"/>
  </g>
</svg>
