<svg xmlns="http://www.w3.org/2000/svg" width="36" height="36" viewBox="0 0 36 36">
  <title>Artboard 2</title>
  <g>
    <path d="M29,26.87a6.63,6.63,0,0,0,3-5.37c0-3.89-3.78-7.05-8.45-7.05S15.1,17.6,15.1,21.5s3.78,7.05,8.45,7.05a10,10,0,0,0,2.88-.42.6.6,0,0,1,.47.05l1.83,1.06c.41.24.64.06.52-.4l-.4-1.52A.43.43,0,0,1,29,26.87Zm-8.29-6.48a1.15,1.15,0,1,1,1.15-1.15A1.15,1.15,0,0,1,20.73,20.38Zm5.6,0a1.15,1.15,0,1,1,1.15-1.15A1.15,1.15,0,0,1,26.33,20.38Z" style="fill: #232424"/>
    <path d="M14.15,6.65C8.55,6.65,4,10.44,4,15.1a7.94,7.94,0,0,0,3.54,6.41.6.6,0,0,1,.23.64L7.3,23.94c-.14.54.13.75.61.47l2.17-1.27a.82.82,0,0,1,.65-.08,12,12,0,0,0,3.42.49h.55a6.47,6.47,0,0,1-.34-2.08c0-4.25,4.16-7.69,9.29-7.69h.53C23.42,9.74,19.22,6.65,14.15,6.65Zm-3.41,7.08a1.35,1.35,0,1,1,1.35-1.35A1.35,1.35,0,0,1,10.75,13.74Zm6.78,0a1.35,1.35,0,1,1,1.35-1.35A1.35,1.35,0,0,1,17.53,13.74Z" style="fill: #232424"/>
  </g>
</svg>
